<svg xmlns="http://www.w3.org/2000/svg" width="306" height="344" fill="none"><path fill="#007CFB" d="M305.815 157.11c-.958 12.783-1.742 25.739-2.874 38.608-1.045 11.739-2.787 23.478-6.445 34.782-6.009 18.521-16.025 34.782-28.479 49.651-14.196 16.956-32.05 28.608-52.691 36.347-15.067 5.565-30.482 9.826-45.985 13.739-13.847 3.478-27.869 5.999-41.891 8.782-8.448 1.652-16.809 3.304-25.344 3.913-6.445.522-12.89 1.043-19.422.261-6.619-.87-12.977-2.348-19.073-5.044-1.48-.695-3.048-1.391-4.529-2.087-10.19-4.347-19.16-10.347-27.347-17.738-4.093-3.739-8.012-7.565-11.322-12-.697-.956-1.48-1.826-2.09-2.869-3.832-6.696-7.925-13.304-11.06-20.348-2.352-5.304-4.007-10.782-4.617-16.608-1.045-9.652-2.003-19.217-1.567-28.956.522-10.174 2.09-20.173 4.528-30.086 2.875-11.565 6.097-22.956 9.145-34.434 2.439-9.304 4.877-18.695 6.184-28.347.784-5.565 1.306-11.217 1.48-16.782.174-7.565-.087-15.13-.261-22.782-.174-9.304.087-18.609 1.829-27.826 4.006-21.304 14.719-38.694 31.353-52.433C66.66 15.462 79.637 9.288 93.92 5.636c16.461-4.261 33.183-5.913 49.991-4.609 13.238.957 26.215 3.652 38.844 7.826 20.641 6.87 40.759 15.043 60.006 25.13 8.623 4.522 16.722 9.826 24.212 15.913 16.025 13.13 26.476 29.825 32.311 49.564 5.139 17.217 7.316 34.781 6.532 52.781-.087 1.565 0 3.217 0 4.869Z"/><mask id="a" width="306" height="344" x="0" y="0" maskUnits="userSpaceOnUse" style="mask-type:alpha"><path fill="#F90" d="M305.815 157.11c-.958 12.783-1.742 25.739-2.874 38.608-1.045 11.739-2.787 23.478-6.445 34.782-6.009 18.521-16.025 34.782-28.479 49.651-14.196 16.956-32.05 28.608-52.691 36.347-15.067 5.565-30.482 9.826-45.985 13.739-13.847 3.478-27.869 5.999-41.891 8.782-8.448 1.652-16.809 3.304-25.344 3.913-6.445.522-12.89 1.043-19.422.261-6.619-.87-12.977-2.348-19.073-5.044-1.48-.695-3.048-1.391-4.529-2.087-10.19-4.347-19.16-10.347-27.347-17.738-4.093-3.739-8.012-7.565-11.322-12-.697-.956-1.48-1.826-2.09-2.869-3.832-6.696-7.925-13.304-11.06-20.348-2.352-5.304-4.007-10.782-4.617-16.608-1.045-9.652-2.003-19.217-1.567-28.956.522-10.174 2.09-20.173 4.528-30.086 2.875-11.565 6.097-22.956 9.145-34.434 2.439-9.304 4.877-18.695 6.184-28.347.784-5.565 1.306-11.217 1.48-16.782.174-7.565-.087-15.13-.261-22.782-.174-9.304.087-18.609 1.829-27.826 4.006-21.304 14.719-38.694 31.353-52.433C66.66 15.462 79.637 9.288 93.92 5.636c16.461-4.261 33.183-5.913 49.991-4.609 13.238.957 26.215 3.652 38.844 7.826 20.641 6.87 40.759 15.043 60.006 25.13 8.623 4.522 16.722 9.826 24.212 15.913 16.025 13.13 26.476 29.825 32.311 49.564 5.139 17.217 7.316 34.781 6.532 52.781-.087 1.565 0 3.217 0 4.869Z"/></mask><g fill="#FFF5E6" mask="url(#a)"><path d="M205.768 268.526c.658 1.164 1.473 1.132 1.866-.108-.522-.319-.897-.339-1.461-.827-.19.348-.249.588-.405.935ZM234.125 59.214c2.569-2.991 4.616-5.418 6.34-7.424-5.206.782-5.206.782-6.34 7.424ZM268.42 111.672c2.953-.15 5.499-.284 10.214-.571-5.956-5.344-8.865-6.658-10.214.571ZM194.027 281.365c-2.884.147-3.094 2.604-.307 4.297 3.588 2.172 4.752-.22 6.255-4.394-2.617.035-4.285-.002-5.948.097ZM224.16 275.285c4.103-1.181 5.979-3.635 5.534-8.039-1.459 2.676-6.69 2.847-5.534 8.039ZM219.542 308.455c3.579-.65 5.095-1.9 4.679-4.707-3.694-.535-4.858 1.007-4.679 4.707ZM286.082 137.981c-3.571.003-5.067 1.763-4.553 5.313 3.57-.004 5.066-1.763 4.553-5.313ZM266.946 283.2c-.079-.303-.161-.64-.277-1.009-.451 1.514-4.239 1.186-3.6 3.61.643-.093 1.317-.256 2.024-.42a75.673 75.673 0 0 1 1.853-2.181ZM249.002 102.977c-.683.809-1.398 1.654-1.853 2.182-.674.162-1.348.324-2.024.419.119.437.343.939.809 1.567 2.509-.201 3.684-1.471 3.068-4.168ZM293.082 203.819c2.815-.213 3.945-1.753 2.79-5.177-.542 1.79-5.743.973-2.79 5.177ZM266.558 241.181c-.417-2.841-2.065-4.103-5.85-4.362 1.139 3.9 2.249 6.203 5.85 4.362ZM194.43 258.667c1.851.369 2.964 5.325 4.675 2.129 1.363-2.536-1.516-4.838-4.85-4.877.038.985.003 2.686.175 2.748ZM246.486 248.803c3.571-.004 5.066-1.763 4.553-5.314-3.571.004-5.066 1.763-4.553 5.314ZM273.442 263.221c3.579-.65 5.096-1.866 4.679-4.706-3.696-.569-4.86.973-4.679 4.706ZM239.581 29.242c.408-.016.732-.436.939-1.227.174-.755-.273-1.758-.614-2.628-.073-.134-.986.004-1.597.028.001.884-.265 1.915.07 2.65.338.803.794 1.16 1.202 1.177-1.631 1.765-1.464 3.424.538 5.046 1.632-1.764 1.429-3.456-.538-5.046ZM274.654 183.968c.432-.255.104-1.671.102-2.589l-1.266-1.073c-.339.898-.815 1.767-.913 2.723-.128 1.093.847 1.667 2.077.939ZM286.451 170.855l-1.016-2.511-1.8.07c.373.836.646 1.743 1.185 2.471.18.265 1.088-.009 1.631-.03ZM286.248 207.319c-.858-.204-1.751-.407-2.609-.612.057.576-.045 1.464.234 1.623.799.445 1.723.579 2.582.817a46.008 46.008 0 0 0-.207-1.828ZM276.312 194.172l-1.017-2.511-1.799.071c.372.835.646 1.743 1.185 2.47.18.265 1.054-.007 1.631-.03ZM287.598 181.013l-1.017-2.511-1.799.07c.372.836.646 1.743 1.185 2.471.179.231 1.054-.008 1.631-.03ZM291.815 173.194c-.577.023-1.502-.145-1.629.098-.378.763-.444 1.684-.614 2.541l1.799-.071c.138-.822.273-1.711.444-2.568ZM264.572 155.795c-.858-.205-1.75-.408-2.61-.646.057.576-.044 1.464.234 1.623.766.446 1.722.545 2.583.817a24.979 24.979 0 0 1-.207-1.794ZM243.045 56.856c-.127 1.093.882 1.666 2.078.939.432-.255.104-1.67.102-2.589l-1.266-1.073c-.305.897-.781 1.765-.914 2.723ZM173.375 296.765c.05.406.472.764 1.298 1.003.792.242 1.762-.171 2.601-.442.135-.039-.106-.982-.164-1.592-.887-.067-1.92-.4-2.657-.099-.77.302-1.129.69-1.078 1.13-.934-.405-1.839-.948-2.799-1.148-1.13-.194-1.604.742-.806 2.004.289.43 1.708.205 2.595.272.361-.354.685-.741 1.01-1.128ZM298.288 185.658c-.339-.837-.679-1.708-1.017-2.511l-1.799.071c.373.836.646 1.743 1.185 2.47.18.265 1.054-.007 1.631-.03ZM235.53 81.195c-.373-.836-.647-1.743-1.185-2.47-.179-.232-1.054.007-1.631.03l1.016 2.51 1.8-.07ZM291.893 196.86c-.859-.204-1.751-.408-2.61-.646.056.576-.045 1.464.233 1.623.766.446 1.722.545 2.583.817-.057-.576-.147-1.15-.206-1.794ZM169.095 315.093c.765.446 1.721.545 2.582.817-.056-.576.045-1.464-.233-1.623-.8-.445-1.724-.579-2.583-.817.09.575-.045 1.464.234 1.623ZM177.557 307.994c.378-.763.444-1.684.615-2.54l-1.8.07c-.138.822-.307 1.713-.444 2.568.544-.021 1.47.181 1.629-.098ZM280.039 116.555c-.858-.204-1.716-.408-2.608-.611.056.575-.045 1.464.233 1.623.766.446 1.722.544 2.583.817-.057-.576-.113-1.152-.208-1.829ZM104.329 312.155c-.577.023-1.502-.145-1.628.098-.378.763-.444 1.684-.615 2.541l1.8-.071c.103-.854.273-1.711.443-2.568ZM185.367 310.27c.032-.035.066-.037.065-.071.378-.763.444-1.683.615-2.54l-1.8.07a24.611 24.611 0 0 1-.28 1.542c.459.424.914.746 1.4.999Z"/><path d="M185.366 310.27a8.75 8.75 0 0 1-1.365-.967l-.163 1.027c.475-.019 1.263.12 1.528-.06ZM258.616 82.81c-.372-.836-.646-1.744-1.185-2.47-.18-.266-1.054.006-1.631.029.339.837.679 1.708 1.017 2.51l1.799-.07ZM256.301 93.137c-.18-.265-1.054.007-1.631.03l1.016 2.51 1.8-.07c-.373-.836-.614-1.778-1.185-2.47ZM267.367 92.632c-.804.304-1.714.51-2.375 1.012-.231.179.076 1.051.132 1.627.84-.27 1.644-.575 2.45-.844a38.618 38.618 0 0 1-.207-1.795ZM249.043 157.018c.339.837.68 1.707 1.017 2.51l1.8-.07c-.373-.836-.647-1.743-1.185-2.47-.179-.231-1.053.041-1.632.03ZM253.565 151.77c.339.837.679 1.708 1.017 2.511l1.8-.071c-.373-.835-.647-1.743-1.184-2.436-.216-.298-1.089-.025-1.633-.004ZM271.579 130.66c.373.836.647 1.744 1.185 2.471.179.231 1.054-.008 1.631-.03l-1.016-2.511-1.8.07ZM252.075 184.003c.765.446 1.721.544 2.582.817a39.89 39.89 0 0 0-.206-1.795c-.858-.204-1.716-.408-2.609-.612.09.541-.046 1.431.233 1.59ZM265.603 168.204c.766.446 1.722.544 2.583.817a43.03 43.03 0 0 0-.206-1.795 100.97 100.97 0 0 1-2.61-.646c.089.541-.045 1.465.233 1.624ZM239.763 210.874c.543-.021 1.468.147 1.628-.098.378-.763.444-1.683.649-2.542l-1.8.071c-.206.824-.342 1.68-.477 2.569ZM264.471 180.964c.765.447 1.722.545 2.582.817a39.692 39.692 0 0 0-.206-1.794c-.858-.204-1.75-.408-2.61-.646.091.575-.045 1.464.234 1.623ZM290.223 216.752c.001.884-.266 1.88.07 2.65.37.767.792 1.125 1.166 1.11-1.496 1.759-2.991 3.518-4.488 5.243 1.464 1.779 3.191 1.576 4.471.403 1.706-1.597 2.82-3.545.051-5.647.373-.015.731-.437.938-1.227.173-.789-.273-1.758-.613-2.629-.071-.065-1.017.074-1.595.097ZM217.345 257.596c.001.884-.265 1.915.07 2.65.37.768.792 1.125 1.201 1.143-.339.898-.815 1.767-.914 2.723-.127 1.093.882 1.666 2.078.939.432-.255.104-1.671.102-2.589-.422-.358-.81-.716-1.232-1.074.407-.016.732-.403.905-1.192.174-.789-.274-1.791-.613-2.628-.074-.168-1.02.006-1.597.028ZM230.464 241.778c.339.837.679 1.708 1.016 2.511l1.8-.071c-.373-.835-.646-1.743-1.185-2.47-.213-.23-1.088.009-1.631.03ZM235.186 238.159c.766.446 1.722.544 2.583.817a41.497 41.497 0 0 0-.207-1.795c-.858-.204-1.716-.409-2.609-.646.055.542-.045 1.464.233 1.624ZM268.25 207.14c.181.265 1.054-.007 1.631-.029-.339-.837-.679-1.708-1.016-2.511l-1.8.07c.373.836.648 1.777 1.185 2.47ZM211.691 275.638c.001.885-.266 1.881.07 2.65-.884 3.47-3.22 4.616-1.47 7.608 3.223-.195 4.268-2.174 3.448-7.481.03-.103.133-.073.162-.211.174-.755-.273-1.757-.614-2.628-.039-.135-.984.038-1.596.062ZM216.039 272.001c.766.446 1.722.545 2.583.817-.057-.576.045-1.464-.234-1.623-.765-.446-1.721-.545-2.582-.817.056.576-.045 1.464.233 1.623ZM243.13 241.284c.577-.022 1.502.146 1.628-.097.38-.729.444-1.684.615-2.541l-1.8.07c-.136.856-.307 1.713-.443 2.568ZM233.047 279.904c-.378.763-.444 1.684-.614 2.541l1.799-.071c.138-.822.309-1.679.444-2.568-.577.023-1.502-.145-1.629.098ZM263.415 263.375c.839-.271 1.643-.574 2.449-.844-.06-.678-.151-1.252-.206-1.794-.805.303-1.715.509-2.375 1.011-.265.18.076 1.085.132 1.627ZM244.598 70.469c.18.265 1.054-.008 1.631-.03-.339-.837-.679-1.708-1.017-2.511-.679.026-1.256.05-1.799.07.408.869.647 1.777 1.185 2.47Z"/></g></svg>