<svg xmlns="http://www.w3.org/2000/svg" version="1.1" xmlns:xlink="http://www.w3.org/1999/xlink" xmlns:svgjs="http://svgjs.dev/svgjs" width="1440" height="560" preserveAspectRatio="none" viewBox="0 0 1440 560"><g mask="url(&quot;#SvgjsMask1029&quot;)" fill="none"><path d="M71.87 651.25C197.63 648.43 306.16 475.81 543.39 475.65 780.63 475.49 779.15 545.65 1014.92 545.65 1250.68 545.65 1367.27 475.84 1486.44 475.65" stroke="rgba(51,121,194,0.58)" stroke-width="2"></path><path d="M150.2 646.92C352.43 620.61 466.74 158.99 802.21 156.73 1137.68 154.47 1285.55 328.85 1454.22 330.33" stroke="rgba(51,121,194,0.58)" stroke-width="2"></path><path d="M750.96 600.39C854.4 556.16 806.56 235.75 1010.66 232.91 1214.77 230.07 1396.62 355.27 1530.07 356.11" stroke="rgba(51,121,194,0.58)" stroke-width="2"></path><path d="M584.98 573.91C705.83 569.73 785.66 388.88 1028.13 380.05 1270.6 371.22 1349.66 183.11 1471.28 178.45" stroke="rgba(51,121,194,0.58)" stroke-width="2"></path><path d="M449.39 581.37C648.38 552.97 756.3 87.47 1082.07 85.19 1407.85 82.91 1549.99 268.11 1714.76 269.99" stroke="rgba(51,121,194,0.58)" stroke-width="2"></path></g><defs><mask id="SvgjsMask1029"><rect width="1440" height="560" fill="#ffffff"></rect></mask></defs></svg>