<svg xmlns="http://www.w3.org/2000/svg" width="344" height="306" fill="none"><path fill="#2549C1" d="M187.452 305.436c-12.782-.958-25.738-1.742-38.607-2.874-11.739-1.045-23.478-2.787-34.782-6.445-18.521-6.009-34.782-16.025-49.651-28.479-16.956-14.196-28.608-32.05-36.347-52.691-5.565-15.067-9.826-30.482-13.739-45.985-3.478-13.847-6-27.869-8.782-41.891-1.652-8.448-3.304-16.809-3.913-25.344-.522-6.445-1.044-12.89-.261-19.422.87-6.619 2.348-12.977 5.043-19.073.696-1.48 1.392-3.048 2.087-4.529 4.348-10.19 10.348-19.16 17.739-27.347 3.739-4.093 7.565-8.013 12-11.322.956-.697 1.826-1.48 2.87-2.09 6.695-3.832 13.303-7.926 20.346-11.06 5.305-2.352 10.783-4.007 16.609-4.617C87.716 1.222 97.28.264 107.02.7c10.173.523 20.173 2.09 30.086 4.53 11.565 2.873 22.956 6.096 34.434 9.144 9.304 2.439 18.695 4.877 28.347 6.184 5.565.783 11.217 1.306 16.782 1.48 7.565.174 15.13-.087 22.782-.261 9.304-.174 18.608.087 27.826 1.829 21.303 4.006 38.694 14.719 52.433 31.353 9.391 11.322 15.565 24.299 19.217 38.582 4.261 16.461 5.913 33.182 4.609 49.991-.957 13.238-3.653 26.215-7.826 38.843-6.87 20.641-15.043 40.76-25.13 60.007-4.522 8.622-9.826 16.722-15.913 24.212-13.13 16.025-29.825 26.476-49.564 32.311-17.217 5.139-34.782 7.316-52.781 6.532-1.565-.087-3.217 0-4.87 0Z"/><mask id="a" width="344" height="306" x="0" y="0" maskUnits="userSpaceOnUse" style="mask-type:alpha"><path fill="#4E4B66" d="M187.452 305.436c-12.782-.958-25.738-1.742-38.607-2.874-11.739-1.045-23.478-2.787-34.782-6.445-18.521-6.009-34.782-16.025-49.651-28.479-16.956-14.196-28.608-32.05-36.347-52.691-5.565-15.067-9.826-30.482-13.739-45.985-3.478-13.847-6-27.869-8.782-41.891-1.652-8.448-3.304-16.809-3.913-25.344-.522-6.445-1.044-12.89-.261-19.422.87-6.619 2.348-12.977 5.043-19.073.696-1.48 1.392-3.048 2.087-4.529 4.348-10.19 10.348-19.16 17.739-27.347 3.739-4.093 7.565-8.012 12-11.322.956-.697 1.826-1.48 2.87-2.09 6.695-3.832 13.303-7.926 20.346-11.06 5.305-2.352 10.783-4.007 16.609-4.617C87.716 1.222 97.28.264 107.02.7c10.173.522 20.173 2.09 30.086 4.528 11.565 2.874 22.956 6.097 34.434 9.145 9.304 2.439 18.695 4.877 28.347 6.184 5.565.783 11.217 1.306 16.782 1.48 7.565.174 15.13-.087 22.782-.261 9.304-.174 18.608.087 27.826 1.829 21.303 4.006 38.694 14.719 52.433 31.353 9.391 11.322 15.565 24.299 19.217 38.582 4.261 16.461 5.913 33.182 4.609 49.991-.957 13.238-3.653 26.215-7.826 38.843-6.87 20.641-15.043 40.76-25.13 60.007-4.522 8.622-9.826 16.722-15.913 24.212-13.13 16.025-29.825 26.476-49.564 32.311-17.217 5.139-34.782 7.316-52.781 6.532-1.565-.087-3.217 0-4.87 0Z"/></mask><g fill="#FFF5E6" mask="url(#a)"><path d="M225.504 271.872c.297 1.304 1.087 1.507 1.819.431-.41-.456-.763-.581-1.164-1.21-.282.279-.406.492-.655.779ZM312.496 79.394c3.317-2.132 5.972-3.873 8.198-5.303-5.214-.738-5.214-.738-8.198 5.303ZM330.369 139.465c2.873.7 5.35 1.3 9.952 2.372-4.182-6.823-6.593-8.914-9.952-2.372ZM210.584 280.821c-2.807-.683-3.71 1.611-1.523 4.03 2.817 3.107 4.617 1.147 7.25-2.423-2.518-.715-4.106-1.227-5.727-1.607ZM241.197 283.606c4.269.041 6.769-1.775 7.601-6.122-2.163 2.147-7.225.816-7.601 6.122ZM339.776 169.724c-3.423-1.017-5.359.242-5.882 3.791 3.423 1.017 5.359-.241 5.882-3.791ZM279.937 303.419c.01-.313.028-.659.022-1.047-.864 1.322-4.4-.074-4.481 2.431.643.094 1.335.131 2.06.176a73.974 73.974 0 0 1 2.399-1.56ZM314.245 125.584c-.885.58-1.811 1.185-2.399 1.561-.692-.037-1.384-.074-2.059-.177-.011.453.06.998.328 1.733 2.461.525 3.95-.357 4.13-3.117ZM327.669 234.817c2.758.601 4.281-.553 4.153-4.163-1.031 1.56-5.782-.709-4.153 4.163ZM291.573 263.041c.412-2.842-.806-4.522-4.359-5.852-.024 4.063.382 6.587 4.359 5.852ZM217.457 259.184c1.668.884 1.318 5.95 3.871 3.377 2.031-2.041-.07-5.069-3.255-6.06-.244.955-.764 2.575-.616 2.683ZM270.16 264.609c3.423 1.017 5.358-.242 5.881-3.791-3.423-1.017-5.358.241-5.881 3.791ZM291.871 286.129c3.616.4 5.417-.331 5.829-3.173-3.379-1.601-4.935-.456-5.829 3.173ZM326.29 52.232c.395.101.826-.21 1.25-.908.383-.674.241-1.762.164-2.694-.033-.149-.947-.278-1.539-.43-.252.848-.801 1.76-.691 2.56.094.866.43 1.338.816 1.472-2.067 1.224-2.381 2.863-.926 4.99 2.067-1.225 2.357-2.905.926-4.99ZM315.682 210.527c.487-.121.578-1.571.838-2.451l-.907-1.39c-.581.763-1.286 1.46-1.653 2.348-.435 1.011.335 1.84 1.722 1.493ZM330.735 201.333l-.257-2.697-1.745-.447c.119.908.122 1.856.43 2.706.097.306 1.045.303 1.572.438ZM320.119 236.218c-.764-.441-1.561-.89-2.325-1.332-.11.568-.461 1.391-.24 1.623.639.654 1.486 1.047 2.241 1.521.111-.568.213-1.104.324-1.812ZM314.355 220.78l-.257-2.697-1.745-.446c.119.907.122 1.855.43 2.706.097.305 1.012.294 1.572.437ZM328.931 211.395l-.257-2.697-1.745-.447c.119.908.122 1.856.43 2.706.105.273 1.012.295 1.572.438ZM335.206 205.107c-.56-.143-1.398-.568-1.588-.371-.581.623-.907 1.486-1.316 2.259l1.745.447c.367-.748.751-1.562 1.159-2.335ZM314.072 180.648c-.764-.441-1.561-.891-2.316-1.365-.111.568-.461 1.391-.24 1.623.606.646 1.494 1.014 2.241 1.521.069-.544.18-1.112.315-1.779ZM321.718 79.684c-.434 1.011.369 1.848 1.722 1.493.487-.12.578-1.57.838-2.451l-.906-1.39c-.549.772-1.253 1.468-1.654 2.348ZM186.392 289.677c-.068.403.234.867.957 1.332.689.457 1.737.34 2.619.32.14.001.178-.972.297-1.573-.831-.317-1.725-.932-2.517-.855-.825.07-1.28.339-1.356.776-.78-.656-1.492-1.435-2.355-1.901-1.027-.509-1.749.254-1.345 1.69.154.496 1.579.685 2.409 1.003.447-.237.869-.514 1.291-.792ZM337.847 218.902c-.085-.899-.162-1.831-.256-2.697l-1.745-.447c.118.908.121 1.856.43 2.706.097.306 1.012.294 1.571.438ZM307.561 100.86c-.119-.908-.122-1.856-.43-2.706-.106-.273-1.012-.294-1.572-.438l.257 2.697 1.745.447ZM328.517 227.809c-.764-.442-1.561-.891-2.316-1.365-.111.568-.461 1.39-.24 1.622.606.646 1.494 1.014 2.241 1.521.111-.568.188-1.145.315-1.778ZM177.052 306.017c.606.647 1.494 1.014 2.241 1.521.11-.568.461-1.39.24-1.622-.639-.655-1.486-1.047-2.241-1.521-.078.576-.462 1.39-.24 1.622ZM187.19 301.633c.58-.623.907-1.487 1.315-2.259l-1.745-.447c-.367.748-.783 1.553-1.159 2.334.527.135 1.357.593 1.589.372ZM340.108 147.466c-.764-.441-1.528-.883-2.325-1.332-.11.568-.461 1.39-.24 1.622.606.646 1.494 1.014 2.242 1.521.11-.568.22-1.136.323-1.811ZM115.827 284.693c-.559-.144-1.398-.569-1.588-.372-.581.623-.907 1.487-1.315 2.259l1.744.447c.343-.789.751-1.562 1.159-2.334ZM194.024 306.045c.041-.024.074-.016.082-.049.581-.623.907-1.486 1.315-2.259l-1.744-.446c-.226.468-.451.937-.709 1.397.318.537.662.976 1.056 1.357Z"/><path d="M194.023 306.045a8.608 8.608 0 0 1-1.031-1.316l-.451.937c.461.118 1.176.476 1.482.379ZM329.223 109.005c-.119-.908-.121-1.855-.43-2.706-.097-.306-1.012-.294-1.572-.438.086.899.163 1.831.257 2.697l1.745.447ZM324.053 118.24c-.098-.306-1.013-.294-1.572-.438l.257 2.697 1.744.447c-.118-.908-.08-1.88-.429-2.706ZM334.801 120.919c-.857.061-1.788-.002-2.564.291-.273.105-.229 1.028-.339 1.597.882-.02 1.739-.081 2.588-.109.095-.643.205-1.211.315-1.779ZM298.842 177.382c.085.899.162 1.831.256 2.697l1.745.447c-.118-.908-.121-1.855-.43-2.706-.105-.273-1.02-.261-1.571-.438ZM304.674 173.646c.086.899.163 1.83.257 2.696l1.745.447c-.119-.907-.121-1.855-.438-2.673-.122-.347-1.037-.335-1.564-.47ZM327.97 158.565c.118.907.121 1.855.429 2.706.106.272 1.013.294 1.572.437l-.256-2.697-1.745-.446ZM294.034 204.108c.607.647 1.495 1.014 2.242 1.521.11-.568.212-1.103.315-1.778-.764-.441-1.528-.883-2.325-1.332-.069.543-.453 1.357-.232 1.589ZM311.514 192.834c.606.647 1.494 1.014 2.241 1.521.111-.568.213-1.103.315-1.778-.764-.441-1.528-.882-2.316-1.365-.069.544-.461 1.39-.24 1.622ZM274.556 226.34c.527.135 1.365.56 1.589.372.581-.623.907-1.487 1.348-2.251l-1.745-.446c-.432.731-.808 1.512-1.192 2.325ZM306.782 204.739c.606.647 1.494 1.014 2.241 1.521.111-.568.213-1.103.315-1.778-.764-.441-1.561-.891-2.316-1.365-.078.576-.461 1.39-.24 1.622ZM321.233 246.394c-.252.847-.793 1.726-.69 2.559.135.841.437 1.305.799 1.397a640.897 640.897 0 0 1-5.799 3.742c.895 2.124 2.608 2.422 4.17 1.664 2.091-1.043 3.715-2.592 1.662-5.397.362.092.826-.21 1.25-.908.391-.707.241-1.762.164-2.694-.049-.083-.996-.22-1.556-.363ZM239.721 264.707c-.252.848-.801 1.759-.69 2.56.135.841.438 1.304.824 1.438-.581.764-1.285 1.46-1.653 2.348-.435 1.012.368 1.849 1.722 1.494.487-.121.578-1.571.838-2.452-.302-.463-.571-.918-.874-1.381.395.101.817-.177 1.209-.883.391-.707.249-1.796.163-2.695-.023-.181-.979-.285-1.539-.429ZM256.814 253.298c.085.899.162 1.83.256 2.696l1.745.447c-.118-.907-.121-1.855-.43-2.706-.138-.281-1.045-.302-1.571-.437ZM262.373 251.179c.607.646 1.495 1.014 2.242 1.521.11-.568.212-1.103.315-1.778-.764-.442-1.528-.883-2.317-1.365-.101.535-.461 1.39-.24 1.622ZM302.923 230.904c.097.305 1.012.294 1.572.437-.086-.899-.163-1.831-.257-2.696l-1.745-.447c.119.907.113 1.888.43 2.706ZM229.148 280.381c-.252.848-.793 1.727-.691 2.56-1.839 3.072-4.404 3.502-3.583 6.87 3.144.735 4.711-.864 5.442-6.184.058-.09.149-.032.215-.155.383-.674.241-1.763.164-2.695.001-.14-.955-.244-1.547-.396ZM234.354 278.138c.606.647 1.494 1.014 2.241 1.521.11-.568.461-1.39.24-1.622-.606-.646-1.494-1.014-2.241-1.521-.111.568-.462 1.39-.24 1.622ZM269.092 256.445c.56.143 1.398.568 1.589.371.572-.59.907-1.486 1.315-2.259l-1.745-.447c-.375.781-.783 1.554-1.159 2.335ZM248.394 290.572c-.581.623-.907 1.487-1.315 2.259l1.744.447c.367-.748.776-1.521 1.159-2.334-.559-.144-1.398-.569-1.588-.372ZM282.218 283.411c.882-.02 1.74-.081 2.589-.109.135-.667.213-1.243.315-1.778-.858.061-1.789-.002-2.565.29-.306.097-.237 1.062-.339 1.597ZM319.315 93.172c.098.306 1.013.294 1.572.438-.085-.899-.162-1.83-.256-2.697l-1.745-.447c.143.95.113 1.889.429 2.706Z"/></g></svg>