<svg xmlns="http://www.w3.org/2000/svg" width="306" height="344" fill="none"><path fill="#F75959" d="M305.815 157.11c-.958 12.783-1.742 25.739-2.874 38.608-1.045 11.739-2.787 23.478-6.445 34.782-6.009 18.521-16.025 34.782-28.479 49.651-14.196 16.956-32.05 28.608-52.691 36.347-15.067 5.565-30.482 9.826-45.985 13.739-13.847 3.478-27.869 5.999-41.891 8.782-8.448 1.652-16.809 3.304-25.344 3.913-6.445.522-12.89 1.043-19.422.261-6.619-.87-12.977-2.348-19.073-5.044-1.48-.695-3.048-1.391-4.529-2.087-10.19-4.347-19.16-10.347-27.347-17.738-4.093-3.739-8.012-7.565-11.322-12-.697-.956-1.48-1.826-2.09-2.869-3.832-6.696-7.925-13.304-11.06-20.348-2.352-5.304-4.007-10.782-4.617-16.608-1.045-9.652-2.003-19.217-1.567-28.956.522-10.174 2.09-20.173 4.528-30.086 2.875-11.565 6.097-22.956 9.145-34.434 2.439-9.304 4.877-18.695 6.184-28.347.784-5.565 1.306-11.217 1.48-16.782.174-7.565-.087-15.13-.261-22.782-.174-9.304.087-18.609 1.829-27.826 4.006-21.304 14.719-38.694 31.353-52.433C66.66 15.462 79.637 9.288 93.92 5.636c16.461-4.261 33.183-5.913 49.991-4.609 13.238.957 26.215 3.652 38.844 7.826 20.641 6.87 40.759 15.043 60.006 25.13 8.623 4.522 16.722 9.826 24.212 15.913 16.025 13.13 26.476 29.825 32.311 49.564 5.139 17.217 7.316 34.781 6.532 52.781-.087 1.565 0 3.217 0 4.869Z"/><mask id="a" width="306" height="344" x="0" y="0" maskUnits="userSpaceOnUse" style="mask-type:alpha"><path fill="#007CFB" d="M305.815 157.11c-.958 12.783-1.742 25.739-2.874 38.608-1.045 11.739-2.787 23.478-6.445 34.782-6.009 18.521-16.025 34.782-28.479 49.651-14.196 16.956-32.05 28.608-52.691 36.347-15.067 5.565-30.482 9.826-45.985 13.739-13.847 3.478-27.869 5.999-41.891 8.782-8.448 1.652-16.809 3.304-25.344 3.913-6.445.522-12.89 1.043-19.422.261-6.619-.87-12.977-2.348-19.073-5.044-1.48-.695-3.048-1.391-4.529-2.087-10.19-4.347-19.16-10.347-27.347-17.738-4.093-3.739-8.012-7.565-11.322-12-.697-.956-1.48-1.826-2.09-2.869-3.832-6.696-7.925-13.304-11.06-20.348-2.352-5.304-4.007-10.782-4.617-16.608-1.045-9.652-2.003-19.217-1.567-28.956.522-10.174 2.09-20.173 4.528-30.086 2.875-11.565 6.097-22.956 9.145-34.434 2.439-9.304 4.877-18.695 6.184-28.347.784-5.565 1.306-11.217 1.48-16.782.174-7.565-.087-15.13-.261-22.782-.174-9.304.087-18.609 1.829-27.826 4.006-21.304 14.719-38.694 31.353-52.433C66.66 15.462 79.637 9.288 93.92 5.636c16.461-4.261 33.183-5.913 49.991-4.609 13.238.957 26.215 3.652 38.844 7.826 20.641 6.87 40.759 15.043 60.006 25.13 8.623 4.522 16.722 9.826 24.212 15.913 16.025 13.13 26.476 29.825 32.311 49.564 5.139 17.217 7.316 34.781 6.532 52.781-.087 1.565 0 3.217 0 4.869Z"/></mask><g fill="#FFF5E6" mask="url(#a)"><path d="M183.504 291.872c.297 1.304 1.087 1.507 1.819.431-.41-.456-.763-.581-1.164-1.21-.282.279-.406.492-.655.779ZM270.496 99.394c3.317-2.132 5.972-3.873 8.198-5.303-5.214-.738-5.214-.738-8.198 5.303ZM288.369 159.465c2.873.7 5.35 1.3 9.952 2.372-4.182-6.823-6.593-8.914-9.952-2.372ZM168.584 300.821c-2.807-.683-3.71 1.611-1.523 4.03 2.817 3.107 4.617 1.147 7.25-2.423-2.518-.715-4.106-1.227-5.727-1.607ZM199.197 303.606c4.269.041 6.769-1.775 7.601-6.122-2.163 2.147-7.225.816-7.601 6.122ZM185.292 334.073c3.616.399 5.425-.365 5.829-3.173-3.387-1.569-4.943-.424-5.829 3.173ZM297.776 189.724c-3.423-1.017-5.359.242-5.882 3.791 3.423 1.017 5.359-.242 5.882-3.791ZM237.937 323.419c.01-.313.028-.66.022-1.047-.864 1.322-4.4-.074-4.481 2.431.643.094 1.335.131 2.06.176a73.974 73.974 0 0 1 2.399-1.56ZM272.245 145.584c-.885.58-1.811 1.185-2.399 1.561-.692-.037-1.384-.074-2.059-.177-.011.453.06.998.328 1.733 2.461.525 3.95-.357 4.13-3.117ZM285.669 254.817c2.758.601 4.281-.553 4.153-4.163-1.031 1.56-5.782-.709-4.153 4.163ZM249.573 283.04c.412-2.841-.806-4.521-4.359-5.851-.024 4.063.382 6.587 4.359 5.851ZM175.457 279.184c1.668.884 1.318 5.95 3.871 3.377 2.031-2.041-.07-5.069-3.255-6.06-.244.955-.764 2.575-.616 2.683ZM228.16 284.609c3.423 1.016 5.358-.242 5.881-3.791-3.423-1.017-5.358.241-5.881 3.791ZM249.871 306.129c3.616.4 5.417-.332 5.829-3.173-3.379-1.601-4.935-.456-5.829 3.173ZM284.29 72.232c.395.101.826-.21 1.25-.908.383-.674.241-1.762.164-2.694-.033-.149-.947-.278-1.539-.43-.252.848-.801 1.76-.691 2.56.094.866.43 1.338.816 1.472-2.067 1.224-2.381 2.863-.926 4.99 2.067-1.225 2.357-2.905.926-4.99ZM273.682 230.527c.487-.121.578-1.571.838-2.451l-.907-1.39c-.581.763-1.286 1.46-1.653 2.348-.435 1.011.335 1.84 1.722 1.493ZM288.735 221.333l-.257-2.697-1.745-.447c.119.908.122 1.855.43 2.706.097.306 1.045.303 1.572.438ZM278.119 256.218c-.764-.441-1.561-.89-2.325-1.332-.11.568-.461 1.391-.24 1.623.639.654 1.486 1.047 2.241 1.521.111-.568.213-1.104.324-1.812ZM272.355 240.78l-.257-2.697-1.745-.446c.119.907.122 1.855.43 2.706.097.305 1.012.294 1.572.437ZM286.931 231.395l-.257-2.697-1.745-.447c.119.908.122 1.856.43 2.706.105.273 1.012.295 1.572.438ZM293.206 225.107c-.56-.143-1.398-.568-1.588-.371-.581.623-.907 1.486-1.316 2.259l1.745.447c.367-.748.751-1.562 1.159-2.335ZM272.072 200.648c-.764-.441-1.561-.891-2.316-1.365-.111.568-.461 1.391-.24 1.623.606.646 1.494 1.014 2.241 1.521.069-.544.18-1.112.315-1.779ZM279.718 99.684c-.434 1.011.369 1.848 1.722 1.493.487-.121.578-1.57.838-2.451l-.906-1.39c-.549.772-1.253 1.468-1.654 2.348ZM144.392 309.677c-.068.403.234.867.957 1.332.689.457 1.737.34 2.619.32.14.001.178-.972.297-1.573-.831-.317-1.725-.932-2.517-.855-.825.07-1.28.339-1.356.776-.78-.656-1.492-1.435-2.355-1.901-1.027-.509-1.749.254-1.345 1.69.154.496 1.579.685 2.409 1.003.447-.237.869-.514 1.291-.792ZM295.847 238.902c-.085-.899-.162-1.831-.256-2.697l-1.745-.447c.118.908.121 1.856.43 2.706.097.306 1.012.294 1.571.438ZM265.561 120.86c-.119-.908-.122-1.856-.43-2.706-.106-.273-1.012-.294-1.572-.438l.257 2.697 1.745.447ZM286.517 247.808c-.764-.441-1.561-.89-2.316-1.364-.111.568-.461 1.39-.24 1.622.606.646 1.494 1.014 2.241 1.521.111-.568.188-1.145.315-1.779ZM135.052 326.017c.606.647 1.494 1.014 2.241 1.521.11-.568.461-1.39.24-1.622-.639-.655-1.486-1.047-2.241-1.521-.078.576-.462 1.39-.24 1.622ZM145.19 321.633c.58-.623.907-1.487 1.315-2.259l-1.745-.447c-.367.748-.783 1.553-1.159 2.334.527.135 1.357.593 1.589.372ZM298.108 167.466c-.764-.441-1.528-.883-2.325-1.332-.11.568-.461 1.39-.24 1.622.606.646 1.494 1.014 2.242 1.521.11-.568.22-1.136.323-1.811ZM73.827 304.693c-.56-.144-1.398-.569-1.588-.372-.58.623-.907 1.487-1.315 2.259l1.744.447c.343-.789.751-1.562 1.16-2.334ZM152.024 326.045c.041-.024.074-.016.082-.049.581-.623.907-1.486 1.315-2.259l-1.744-.446c-.226.468-.451.936-.709 1.397.318.537.662.976 1.056 1.357Z"/><path d="M152.023 326.045a8.608 8.608 0 0 1-1.031-1.316l-.451.937c.461.118 1.176.476 1.482.379ZM287.223 129.005c-.119-.908-.121-1.855-.43-2.706-.097-.306-1.012-.294-1.572-.438.086.899.163 1.831.257 2.697l1.745.447ZM282.053 138.24c-.098-.306-1.013-.294-1.572-.438l.257 2.697 1.744.447c-.118-.908-.08-1.88-.429-2.706ZM292.801 140.919c-.857.061-1.788-.002-2.564.291-.273.105-.229 1.028-.339 1.597.882-.02 1.739-.081 2.588-.109.095-.643.205-1.211.315-1.779ZM256.842 197.382c.085.899.162 1.831.256 2.697l1.745.447c-.118-.908-.121-1.855-.43-2.706-.105-.273-1.02-.262-1.571-.438ZM262.674 193.646c.086.899.163 1.83.257 2.696l1.745.447c-.119-.907-.121-1.855-.438-2.673-.122-.347-1.037-.335-1.564-.47ZM285.97 178.565c.118.907.121 1.855.429 2.706.106.272 1.013.294 1.572.437l-.256-2.697-1.745-.446ZM252.034 224.108c.607.647 1.495 1.014 2.242 1.521.11-.568.212-1.103.315-1.778-.764-.441-1.528-.883-2.325-1.332-.069.543-.453 1.357-.232 1.589ZM269.514 212.834c.606.647 1.494 1.014 2.241 1.521.111-.568.213-1.103.315-1.778-.764-.441-1.528-.882-2.316-1.365-.069.544-.461 1.39-.24 1.622ZM232.556 246.34c.527.135 1.365.56 1.589.372.581-.623.907-1.487 1.348-2.251l-1.745-.446c-.432.731-.808 1.512-1.192 2.325ZM264.782 224.739c.606.647 1.494 1.014 2.241 1.521.111-.568.213-1.103.315-1.778-.764-.441-1.561-.891-2.316-1.365-.078.576-.461 1.39-.24 1.622ZM279.233 266.393c-.252.848-.793 1.727-.69 2.56.135.841.437 1.305.799 1.397a640.897 640.897 0 0 1-5.799 3.742c.895 2.124 2.608 2.422 4.17 1.664 2.091-1.043 3.715-2.592 1.662-5.397.362.092.826-.21 1.25-.908.391-.707.241-1.763.164-2.694-.049-.083-.996-.22-1.556-.364ZM197.721 284.707c-.252.848-.801 1.759-.69 2.56.135.841.438 1.304.824 1.438-.581.764-1.285 1.46-1.653 2.348-.435 1.012.368 1.849 1.722 1.494.487-.121.578-1.571.838-2.452-.302-.463-.571-.918-.874-1.381.395.101.817-.177 1.209-.883.391-.707.249-1.796.163-2.695-.023-.181-.979-.286-1.539-.429ZM214.814 273.298c.085.899.162 1.83.256 2.696l1.745.447c-.118-.907-.121-1.855-.43-2.706-.138-.281-1.045-.302-1.571-.437ZM220.373 271.179c.607.646 1.495 1.014 2.242 1.521.11-.568.212-1.103.315-1.778-.764-.442-1.528-.883-2.317-1.365-.101.535-.461 1.39-.24 1.622ZM260.923 250.904c.097.305 1.012.294 1.572.437-.086-.899-.163-1.831-.257-2.696l-1.745-.447c.119.907.113 1.888.43 2.706ZM187.148 300.381c-.252.848-.793 1.727-.691 2.56-1.839 3.072-4.404 3.502-3.583 6.87 3.144.735 4.711-.864 5.442-6.184.058-.09.149-.032.215-.155.383-.674.241-1.763.164-2.695.001-.14-.955-.244-1.547-.396ZM192.354 298.138c.606.647 1.494 1.014 2.241 1.521.11-.568.461-1.39.24-1.622-.606-.646-1.494-1.014-2.241-1.521-.111.568-.462 1.39-.24 1.622ZM227.092 276.445c.56.143 1.398.568 1.589.371.572-.59.907-1.486 1.315-2.259l-1.745-.447c-.375.781-.783 1.554-1.159 2.335ZM206.394 310.572c-.581.623-.907 1.487-1.315 2.259l1.744.447c.367-.748.776-1.521 1.159-2.334-.559-.144-1.398-.569-1.588-.372ZM240.218 303.411c.882-.02 1.74-.081 2.589-.109.135-.667.213-1.243.315-1.778-.858.061-1.789-.002-2.565.29-.306.097-.237 1.062-.339 1.597ZM277.315 113.172c.098.306 1.013.294 1.572.438-.085-.899-.162-1.831-.256-2.697l-1.745-.447c.143.949.113 1.889.429 2.706Z"/></g></svg>